<?xml version="1.0" encoding="utf-8"?>
<!-- Generator: Adobe Illustrator 26.5.0, SVG Export Plug-In . SVG Version: 6.00 Build 0)  -->
<svg version="1.1" id="Calque_1" xmlns="http://www.w3.org/2000/svg" xmlns:xlink="http://www.w3.org/1999/xlink" x="0px" y="0px"
	 viewBox="0 0 24 24" style="enable-background:new 0 0 24 24;" xml:space="preserve">
<style type="text/css">
	.st0{fill:#E8C7DD;}
</style>
<path class="st0" d="M17,11H9.4l3.3-3.3c0.4-0.4,0.4-1,0-1.4s-1-0.4-1.4,0l-5,5c-0.1,0.1-0.2,0.2-0.2,0.3c-0.1,0.2-0.1,0.5,0,0.8
	c0,0.1,0.1,0.2,0.2,0.3l5,5c0.4,0.4,1,0.4,1.4,0c0,0,0,0,0,0c0.4-0.4,0.4-1,0-1.4c0,0,0,0,0,0L9.4,13H17c0.6,0,1-0.4,1-1
	S17.6,11,17,11z"/>
</svg>
