<?xml version="1.0" encoding="utf-8"?>
<!-- Generator: Adobe Illustrator 26.5.0, SVG Export Plug-In . SVG Version: 6.00 Build 0)  -->
<svg version="1.1" id="Calque_1" xmlns="http://www.w3.org/2000/svg" xmlns:xlink="http://www.w3.org/1999/xlink" x="0px" y="0px"
	 viewBox="0 0 24 24" style="enable-background:new 0 0 24 24;" xml:space="preserve">
<style type="text/css">
	.st0{fill:#E8C7DD;}
</style>
<path class="st0" d="M17.9,11.6c0-0.1-0.1-0.2-0.2-0.3l-5-5c-0.4-0.4-1-0.4-1.4,0s-0.4,1,0,1.4l3.3,3.3H7c-0.6,0-1,0.4-1,1
	s0.4,1,1,1h7.6l-3.3,3.3c-0.4,0.4-0.4,1,0,1.4c0,0,0,0,0,0c0.4,0.4,1,0.4,1.4,0c0,0,0,0,0,0l5-5c0.1-0.1,0.2-0.2,0.2-0.3
	C18,12.1,18,11.9,17.9,11.6z"/>
</svg>
